<svg xmlns="http://www.w3.org/2000/svg" viewBox="0 0 158 252.41"><defs><style>.cls-1{fill:#eb612d;}</style></defs><g id="Layer_2" data-name="Layer 2"><g id="Calque_1" data-name="Calque 1"><path class="cls-1" d="M118.5,14.36a35.89,35.89,0,0,0-6.29.64,1,1,0,0,1-.87-.31,42.94,42.94,0,0,0-64.68,0,.93.93,0,0,1-.87.3,36.93,36.93,0,0,0-6.29-.63A39.49,39.49,0,0,0,21.12,88.8a.94.94,0,0,1,.51.84l-.07,29.69v28.53l.06-.13c-3.9,9.87-5.75,21.27-5.75,33.68,0,41.2,20.15,71,66.58,71,17.52,0,38.13-5.07,50.86-12a6,6,0,0,0,3.14-5.29l0-42.09,0,0,0,0c-1.69,1.57-5.06,3.14-10.12,3.14-8.43,0-10.11-14.11-21.91-14.11-9.27,0-14.38,4.84-16.14,6.91a.94.94,0,0,1-1.43,0c-1.77-2.07-6.88-6.91-16.14-6.91-11.8,0-13.49,14.11-21.92,14.11a18,18,0,0,1-7.63-1.51A1,1,0,0,0,39.91,196c2.33,4.13,8.57,11.15,24,11.15,6.42,0,17.4-2.84,22.81-11.2a.93.93,0,0,1,1.58,0c5.41,8.36,16.4,11.2,22.81,11.2a34.43,34.43,0,0,0,14.81-2.9.94.94,0,0,1,1.35.86v24.46a6,6,0,0,1-3.82,5.61c-10.44,4.09-31.08,8.15-41.6,8.24-39.63.35-57.6-30.56-57.6-62,0-19.73,3.47-37.22,15.92-47.38,12.5-11,22.8-14.6,44.1-15.21,12.65-.37,30.21,5.66,41.88,10.77a4.49,4.49,0,0,0,1.2.19,13.61,13.61,0,0,0,1.93-.48l.48-.18c5.12-2,6.67-3.72,6.67-9.77V89.58a.94.94,0,0,1,.51-.83A39.48,39.48,0,0,0,118.5,14.36Zm13,69.06a3.84,3.84,0,0,0-.53.28,3.44,3.44,0,0,0-1.1,1.08,3.54,3.54,0,0,0-.55,1.44,4,4,0,0,0,0,.6v34.91a4.53,4.53,0,0,0-1.2-.86c-11.39-5.45-25.64-10.45-43.65-10.45-18.25,0-32.46,4.22-43.08,11.67A52.56,52.56,0,0,0,29.4,133.67c-.28.36-.53.74-.8,1.12l.07-.13.1-12.57,0-35.22a3,3,0,0,0,0-.59,3.6,3.6,0,0,0-.57-1.48,3.66,3.66,0,0,0-1.06-1,3.81,3.81,0,0,0-.57-.29A32.3,32.3,0,0,1,39.5,21.55c.21,0,.42,0,.64,0a1,1,0,0,1,.8,1.4,42.86,42.86,0,0,0-5,19.84,3.76,3.76,0,0,0,3.46,3.87,3.59,3.59,0,0,0,3.72-3.59A35.91,35.91,0,0,1,114.91,43a3.69,3.69,0,0,0,2.92,3.67,3.59,3.59,0,0,0,4.26-3.53,42.75,42.75,0,0,0-5-20.11,1,1,0,0,1,.8-1.41c.22,0,.43,0,.64,0a32.29,32.29,0,0,1,13,61.87Z"/><path class="cls-1" d="M43.89,75.41a3.6,3.6,0,0,0-7.19,0c0,9.43,10.4,22.37,11.59,23.82a3.59,3.59,0,1,0,5.55-4.56C50,90,43.89,80.61,43.89,75.41Z"/><path class="cls-1" d="M119.29,71.82a3.59,3.59,0,0,0-3.59,3.59c0,5.18-6.11,14.57-10,19.27a3.59,3.59,0,0,0,.51,5,3.6,3.6,0,0,0,5-.5c1.18-1.45,11.58-14.39,11.58-23.82A3.58,3.58,0,0,0,119.29,71.82Z"/><path class="cls-1" d="M79.79,71.82a3.59,3.59,0,0,0-3.59,3.59V97a3.6,3.6,0,0,0,7.19,0V75.41A3.59,3.59,0,0,0,79.79,71.82Z"/></g></g></svg>