<svg id="Layer_1" data-name="Layer 1" xmlns="http://www.w3.org/2000/svg" viewBox="0 0 155.35 29.3"><defs><style>.cls-1{fill:#eb612d;}.cls-2{fill:#f3b679;}.cls-2,.cls-3,.cls-4,.cls-5,.cls-6,.cls-7{fill-rule:evenodd;}.cls-3{fill:#050000;}.cls-4{fill:#d58f66;}.cls-5{fill:#6b351f;}.cls-6{fill:#fefdfc;}.cls-7{fill:#d7dcda;}</style></defs><g id="Layer_2" data-name="Layer 2"><g id="Calque_1" data-name="Calque 1"><path class="cls-1" d="M66.94,4.9a7.85,7.85,0,0,0-3.31-.67,10.93,10.93,0,0,0-6.49,1.93,9.2,9.2,0,0,0-3.08,4,14.22,14.22,0,0,0-1,5.47,9.49,9.49,0,0,0,1.33,5.09,9.21,9.21,0,0,0,7.83,4.44,10.37,10.37,0,0,0,4-.71,7.48,7.48,0,0,0,2.69-1.86,8.28,8.28,0,0,0,1.56-5.25c0-.3-.24-.52-.73-.64a9.45,9.45,0,0,0-2.12-.19H64.31a3.8,3.8,0,0,1-2.09-.46,1.44,1.44,0,0,1-.78-1.28,1.87,1.87,0,0,1,.74-1.64,3.35,3.35,0,0,1,2-.53c1,0,2.3.07,4,.19S71,13,71.77,13a3.51,3.51,0,0,1,2.6,1,4.07,4.07,0,0,1,1,3,14.12,14.12,0,0,1-.78,4.18,15,15,0,0,1-2.21,4.28,8.3,8.3,0,0,1-4.16,2.79,17.78,17.78,0,0,1-6,.95A15.54,15.54,0,0,1,57,28.24a12,12,0,0,1-4.24-2.43,14.22,14.22,0,0,1-3.33-4.72,13.14,13.14,0,0,1-1.19-5.45,16.92,16.92,0,0,1,1.86-7.7,14.23,14.23,0,0,1,5-5.82A12.14,12.14,0,0,1,59,.6,19.47,19.47,0,0,1,63.54,0a14.9,14.9,0,0,1,5.68,1,8.18,8.18,0,0,1,3.7,2.82,2.82,2.82,0,0,1,.55,1.47,2,2,0,0,1-.64,1.38,1.85,1.85,0,0,1-1.29.64,2.3,2.3,0,0,1-.64-.09A1.48,1.48,0,0,1,70.35,7,22.16,22.16,0,0,0,66.94,4.9Z" transform="translate(-6.8 0)"/><path class="cls-1" d="M78.56,13.32a.94.94,0,0,1-.3-.72,2.7,2.7,0,0,1,.92-2,9.78,9.78,0,0,1,1.1-.46,4.09,4.09,0,0,1,1.47-.33,4.26,4.26,0,0,1,2.86.95,3.37,3.37,0,0,1,1.1,2.69q0,.51-.18,2.16c-.13,1.29-.19,2.28-.19,3a12.81,12.81,0,0,0,.88,5.2,2.3,2.3,0,0,0,1,1,2.68,2.68,0,0,0,1.24.37,4.5,4.5,0,0,0,2.16-.46,8.46,8.46,0,0,0,1.8-1.47A5.05,5.05,0,0,0,93.69,21a22.37,22.37,0,0,0,.44-3.55q.09-1.47.18-2.16c.15-1.47.23-2.73.23-3.77a2.56,2.56,0,0,1,.55-1.68,1.87,1.87,0,0,1,1.52-.67,3,3,0,0,1,1.27.35,2,2,0,0,1,.94.8,3.31,3.31,0,0,1,.27,1.52A4.22,4.22,0,0,1,99,12.9a9.88,9.88,0,0,0-.32,2.76v2.39a18.25,18.25,0,0,0,.46,4.83,7.65,7.65,0,0,0,.65,1.5,9.1,9.1,0,0,0,.78,1.26A17.74,17.74,0,0,1,101.76,27a1.28,1.28,0,0,1,.28.75,1.44,1.44,0,0,1-.53,1,1.68,1.68,0,0,1-1.13.48,4.16,4.16,0,0,1-2.94-1.15,6.78,6.78,0,0,1-1.84-3A26.47,26.47,0,0,1,92.7,28a6.2,6.2,0,0,1-2.25.94,12.08,12.08,0,0,1-2.67.3,5.85,5.85,0,0,1-3.63-1.47,7.34,7.34,0,0,1-2.49-3.4c0-.06-.11-.31-.25-.74a6.4,6.4,0,0,1-.19-1.85c0-1.14.06-2.56.19-4.28.09-1.1.13-2.12.13-3a1,1,0,0,0-.3-.69,1,1,0,0,0-.66-.27,2.56,2.56,0,0,0-.62.07,4.39,4.39,0,0,1-.72.07A.89.89,0,0,1,78.56,13.32Z" transform="translate(-6.8 0)"/><path class="cls-1" d="M119.86,19.62a3.28,3.28,0,0,1,1.45,1.45,5.82,5.82,0,0,1,.37,2.3,4.74,4.74,0,0,1-1,2.92,6.59,6.59,0,0,1-2.46,1.95,11.07,11.07,0,0,1-2.69.79,15.17,15.17,0,0,1-2.51.27,13.25,13.25,0,0,1-2.36-.3,13.63,13.63,0,0,1-2-.51,9.52,9.52,0,0,1-2.46-2,3.69,3.69,0,0,1-1-2.44,1.82,1.82,0,0,1,.6-1.45,2.26,2.26,0,0,1,1.56-.53,1.82,1.82,0,0,1,1,.34,2.26,2.26,0,0,1,.69.72,3.38,3.38,0,0,0,1.7,1.79,5.3,5.3,0,0,0,2.44.6,8.32,8.32,0,0,0,3-.53c.92-.35,1.38-.83,1.38-1.45a1.07,1.07,0,0,0-.21-.67,4.07,4.07,0,0,0-.58-.52,5.64,5.64,0,0,0-1.93-.76l-1.65-.39a17.63,17.63,0,0,1-3.75-1.2,8.89,8.89,0,0,1-2.86-2.07,4.42,4.42,0,0,1-1-3.08,4.54,4.54,0,0,1,.92-2.6,5.29,5.29,0,0,1,2.07-1.91,18.52,18.52,0,0,1,2.78-.69A16.76,16.76,0,0,1,114,9.29a14.78,14.78,0,0,1,2.3.2,4.61,4.61,0,0,1,1.89.67,9.61,9.61,0,0,1,2,1.54,2.6,2.6,0,0,1,.79,1.82,3.07,3.07,0,0,1-.23,1.08,1.24,1.24,0,0,1-.56.71,3.6,3.6,0,0,1-1.61.32.88.88,0,0,1-.66-.23,6.59,6.59,0,0,1-.67-.73,2,2,0,0,0-1-.92c-.36-.09-.9-.21-1.61-.35a9.9,9.9,0,0,0-1.42-.2,4.78,4.78,0,0,0-2.19.59c-.75.4-1.12.86-1.12,1.38a.74.74,0,0,0,.34.65,5.86,5.86,0,0,0,.74.41,3.14,3.14,0,0,0,.53.23,11.3,11.3,0,0,0,2.13.78l1.45.42a12,12,0,0,1,3.32,1.15C118.66,18.92,119.14,19.21,119.86,19.62Z" transform="translate(-6.8 0)"/><path class="cls-1" d="M125,12.58a1.49,1.49,0,0,1-.39-1.08,1.73,1.73,0,0,1,.64-1.38,1.29,1.29,0,0,1,.46-.25q.27-.09.54-.21a6.19,6.19,0,0,0,1.29-.51A3.28,3.28,0,0,0,128.9,7c.25-1.17.4-2,.46-2.39A2.29,2.29,0,0,1,130,3.07a2,2,0,0,1,1.45-.53,2,2,0,0,1,1.61.59,3.85,3.85,0,0,1,.46,2.21,8.44,8.44,0,0,1-1,4c.43,0,1.13,0,2.11-.09q2.19-.09,3.09-.09a2.31,2.31,0,0,1,1.35.39,1.29,1.29,0,0,1,.58,1.13,1.89,1.89,0,0,1-1.61,2.07,25.9,25.9,0,0,1-5.34.5q-.31,4.52-.32,7.13a12.64,12.64,0,0,0,.14,2.3,3.91,3.91,0,0,0,.94,2.1,2.7,2.7,0,0,0,2,.66,8.46,8.46,0,0,0,1.93-.32,4.76,4.76,0,0,1,1.25-.23,1.09,1.09,0,0,1,.91.42,1.74,1.74,0,0,1,.33,1.1c0,.83-.54,1.51-1.61,2.05a8.57,8.57,0,0,1-3.82.8,5.78,5.78,0,0,1-2.71-.67A7.69,7.69,0,0,1,129.5,27a2.31,2.31,0,0,1-.53-1c-.23-.61-.45-1.29-.66-2a13.56,13.56,0,0,1-.09-2.7c0-1.33.09-3.67.27-7v-1a11,11,0,0,1-1.2-.06L126,13.12A1.63,1.63,0,0,1,125,12.58Z" transform="translate(-6.8 0)"/><path class="cls-1" d="M161.93,16.21a13.33,13.33,0,0,1,.23,2.19,15.93,15.93,0,0,1-.27,2.76c-.19,1-.36,1.79-.51,2.35-2.12,3.86-5.24,5.79-9.39,5.79a8.64,8.64,0,0,1-4.69-1.52A8.43,8.43,0,0,1,144,24.29a22.59,22.59,0,0,1-1.24-5,10.71,10.71,0,0,1,.8-3.91,13,13,0,0,1,2-3.58,6.21,6.21,0,0,1,2.9-1.8,10.52,10.52,0,0,1,3.68-.76,11.22,11.22,0,0,1,5.45,1.22,9.66,9.66,0,0,1,3.75,3.93A6.18,6.18,0,0,1,161.93,16.21Zm-4.37,2.47a7.6,7.6,0,0,0-.48-2.63,6.13,6.13,0,0,0-1.4-2.2,2.62,2.62,0,0,0-.51-.3,8.12,8.12,0,0,0-1.13-.42,6,6,0,0,0-1.63-.2A4,4,0,0,0,148.64,15a9.09,9.09,0,0,0-1.2,4.69,9,9,0,0,0,.28,1.7,13.87,13.87,0,0,0,.41,1.66,5.6,5.6,0,0,0,1.5,1.49,4,4,0,0,0,2.46.85,5.06,5.06,0,0,0,3.29-1,7.13,7.13,0,0,0,2-2.64A11.28,11.28,0,0,0,157.56,18.68Z" transform="translate(-6.8 0)"/></g></g><path id="Fill-250" class="cls-2" d="M12.89,24.6s-1.12-.05-1.33.74a1.74,1.74,0,0,0,.66,1.87c.61.27,1.76-.39,1.76-.39Z" transform="translate(-6.8 0)"/><path id="Fill-252" class="cls-2" d="M24.66,24.93c-1.34,3.67-7.4,4.65-9,3.81-2.19-1.15-3.3-4.94-3.3-4.94L23,14.4s2.51,8.23,1.68,10.53" transform="translate(-6.8 0)"/><path id="Fill-254" class="cls-3" d="M23,23.23c0-.4.23-.72.52-.72s.52.32.52.72-.23.73-.52.73-.52-.33-.52-.73" transform="translate(-6.8 0)"/><path id="Fill-256" class="cls-3" d="M17.84,25.68c0-.4.24-.73.52-.73s.53.33.53.73-.24.72-.53.72-.52-.32-.52-.72" transform="translate(-6.8 0)"/><path id="Fill-268" class="cls-4" d="M24.69,21.85A12.14,12.14,0,0,1,19.3,20s-.13,1.8-.7,2.11a4.41,4.41,0,0,1-2.82,0L14.24,17.6l9.55-.24a23.29,23.29,0,0,1,.9,4.49" transform="translate(-6.8 0)"/><path id="Fill-270" class="cls-5" d="M25.38,16.56,12.78,18A15.62,15.62,0,0,0,12,22.38c0,2.16,1.16,2.84,2.06,2.43,1.79-.81,1.87-3.87,1.87-3.87a4.94,4.94,0,0,0,2.12.28c.61-.22.49-2.83.49-2.83s4.85,3.76,7.79,2.41-.95-4.24-.95-4.24" transform="translate(-6.8 0)"/><path id="Fill-274" class="cls-5" d="M19.89,27.77c.37-.34.31-1.16.95-1.44.3-.14.69.17.69.17s.38-.59.83-.56.66.75,1,.87a2.15,2.15,0,0,0,1.21,0s-.22,1.25-1.18,1.48A2.19,2.19,0,0,1,21.94,28c-.07,0-.24,1.26-1.41,1.33a3.83,3.83,0,0,1-2.28-1.07,2.79,2.79,0,0,0,1.64-.46" transform="translate(-6.8 0)"/><path id="Fill-276" class="cls-6" d="M25.39,9.89s.75,4.57-.26,6.72c-1.58,3.37-8.59,4.12-12.55,1.8-1.46-.86-.71-7.81-.71-7.81Z" transform="translate(-6.8 0)"/><path id="Fill-278" class="cls-7" d="M25.54,11.1l-.17.21a14.45,14.45,0,0,1-9.6,4.46,12.93,12.93,0,0,1-4.07-.55,36.84,36.84,0,0,1,.17-4.62l13.52-.71s.08.48.15,1.21" transform="translate(-6.8 0)"/><path id="Fill-280" class="cls-6" d="M12.11,5.35c4.3-6,14.92-6,16.19-3.69C29,2.86,28.17,7,25.65,9.94A14.4,14.4,0,0,1,16,14.4c-5.8.1-10.51-3.31-8.93-8.24.83-2.6,5-.81,5-.81" transform="translate(-6.8 0)"/><path id="Fill-282" class="cls-7" d="M10.75,4.92l1.36.43a13.7,13.7,0,0,0-1.66,3.09,8.55,8.55,0,0,1,.3-3.52" transform="translate(-6.8 0)"/></svg>